<?xml version="1.0" encoding="UTF-8"?>
<svg width="32px" height="32px" viewBox="0 0 32 32" version="1.1" xmlns="http://www.w3.org/2000/svg">
  <g stroke="none" stroke-width="1" fill="none" fill-rule="evenodd">
    <rect fill="#6366f1" x="0" y="0" width="32" height="32" rx="6"></rect>
    <path d="M16,5 C16.5522847,5 17,5.44771525 17,6 L17,16 L26,16 C26.5522847,16 27,16.4477153 27,17 C27,17.5522847 26.5522847,18 26,18 L17,18 L17,26 C17,26.5522847 16.5522847,27 16,27 C15.4477153,27 15,26.5522847 15,26 L15,18 L6,18 C5.44771525,18 5,17.5522847 5,17 C5,16.4477153 5.44771525,16 6,16 L15,16 L15,6 C15,5.44771525 15.4477153,5 16,5 Z" fill="#FFFFFF" fill-rule="nonzero"></path>
  </g>
</svg>